<?xml version="1.0" encoding="UTF-8"?>
<svg id="Layer_1" data-name="Layer 1" xmlns="http://www.w3.org/2000/svg" viewBox="0 0 1444.3 1456.08">
  <defs>
    <style>
      .cls-1 {
        fill: #fff;
      }
    </style>
  </defs>
  <path class="cls-1" d="M1444.3,467.79l-28.46,7.12c-38.26,13.55-61.48,42.04-72.62,80.44-1.95,6.72-1.13,16.74-6.49,21.53-2.79-56.54-47.88-103.75-104.6-108.35-.04-1.58,17.88-3.99,20.9-4.88,49.62-14.53,79.62-53.65,83.69-104.99,5.3,5.36,4.62,15.21,6.82,22.72,14.34,49.03,49.6,80.05,100.75,86.41Z"/>
  <g>
    <path class="cls-1" d="M56.24,1279.89h32.1l56.25,176.18h-27.48l-11.56-37.75H37.24l-11.56,37.75H0l56.24-176.18ZM98.36,1394.95l-22.09-72.16c-1.37-4.45-2.82-11.38-4.37-20.81h-1.03c-1.54,9.76-3,16.7-4.37,20.81l-22.34,72.16h54.19Z"/>
    <path class="cls-1" d="M240.56,1456.08v-180.51h32.34l69.95,83.24,69.7-83.24h32.58v180.51h-27.33v-144.16l-74.96,89.26-75.21-89.26v144.16h-27.08Z"/>
    <path class="cls-1" d="M585.53,1456.08c-9.03,0-16.72-3.18-23.06-9.53-6.36-6.35-9.53-14.04-9.53-23.07v-115.32c0-9.03,3.17-16.72,9.53-23.07,6.35-6.35,14.03-9.53,23.06-9.53h115.33c8.85,0,16.5,3.18,22.94,9.53,6.43,6.35,9.66,14.04,9.66,23.07v115.32c0,9.03-3.22,16.72-9.66,23.07-6.44,6.35-14.08,9.53-22.94,9.53h-115.33ZM589.29,1429h107.56c3.85,0,6.35-.63,7.52-1.88s1.76-3.72,1.76-7.39v-107.81c0-3.67-.59-6.14-1.76-7.39-1.17-1.26-3.68-1.88-7.52-1.88h-107.56c-3.68,0-6.14.62-7.39,1.88-1.26,1.25-1.88,3.72-1.88,7.39v107.81c0,3.68.62,6.14,1.88,7.39,1.25,1.25,3.71,1.88,7.39,1.88Z"/>
    <path class="cls-1" d="M841.27,1456.08v-180.51h32.34l120.84,143.91v-143.91h27.33v180.51h-32.34l-121.09-144.16v144.16h-27.08Z"/>
    <path class="cls-1" d="M1129.08,1456.08v-180.51h27.08v180.51h-27.08Z"/>
    <path class="cls-1" d="M1261.46,1456.08v-5.01l71.71-85.24-71.71-85.24v-5.01h31.34l58.16,68.95,57.91-68.95h31.34v5.01l-71.71,85.24,71.95,85.24v5.01h-31.59l-58.16-68.95-57.91,68.95h-31.34Z"/>
  </g>
  <g>
    <polygon class="cls-1" points="219.77 1140.67 165.24 1140.67 630.99 140.99 653.88 203.08 653.83 207.65 219.77 1140.67"/>
    <path class="cls-1" d="M244,1140.67L667.33,233.39c7.98,16.55,16.79,32.98,28.85,47.04l.09,2.93-400.01,857.31h-52.26Z"/>
  </g>
  <g>
    <path class="cls-1" d="M1205.79,528.09L45.59,953.68c12.61-31.19,28.72-60.84,42.55-91.48l2.45-2.09,1115.19-332.02Z"/>
    <polygon class="cls-1" points="1127.03 565.95 1.66 1044.55 19.97 1004.56 22.42 1002.47 1103.94 573.89 1127.03 565.95"/>
  </g>
  <g>
    <path class="cls-1" d="M1177.02,1140.67L649.06,112.24l.5-7.15c18.22-32.4,31.22-69.94,49.6-101.96.94-1.64-.16-3.69,2.99-3l586.94,1140.53h-112.08Z"/>
    <polygon class="cls-1" points="1157.33 1140.67 1074.78 1140.67 597.54 216.73 598.05 211.15 637.79 133.44 1157.33 1140.67"/>
  </g>
</svg>